<?xml version="1.0" standalone="no"?>
<!DOCTYPE svg PUBLIC "-//W3C//DTD SVG 20010904//EN"
 "http://www.w3.org/TR/2001/REC-SVG-20010904/DTD/svg10.dtd">
<svg version="1.0" xmlns="http://www.w3.org/2000/svg"
 width="1920.000000pt" height="1920.000000pt" viewBox="0 0 1920.000000 1920.000000"
 preserveAspectRatio="xMidYMid meet">

<g transform="translate(0.000000,1920.000000) scale(0.100000,-0.100000)"
fill="#000000" stroke="none">
<path d="M9496 15454 c-35 -11 -65 -31 -106 -72 -97 -97 -90 -8 -90 -1172 0
-1164 -7 -1075 89 -1170 41 -41 70 -60 110 -73 145 -46 291 10 369 141 l27 47
0 1055 0 1055 -27 47 c-36 61 -108 123 -165 142 -57 20 -142 19 -207 0z"/>
<path d="M7714 14136 c-71 -33 -115 -75 -149 -143 -25 -49 -30 -69 -29 -133 0
-75 1 -78 197 -550 109 -261 209 -492 223 -513 76 -116 252 -159 380 -94 107
55 167 153 167 272 0 65 -6 84 -85 275 -47 113 -134 322 -193 465 -59 143
-118 279 -131 301 -72 126 -248 181 -380 120z"/>
<path d="M5574 13829 c-87 -25 -181 -122 -205 -212 -16 -60 -7 -154 20 -212
34 -73 1422 -1461 1496 -1496 71 -34 200 -34 265 0 61 32 107 76 138 136 23
43 27 63 27 135 0 69 -4 94 -24 135 -19 40 -169 196 -740 766 -680 681 -719
718 -774 738 -61 22 -147 26 -203 10z"/>
<path d="M9375 12330 c-728 -65 -1387 -403 -1856 -950 -325 -379 -534 -826
-618 -1321 -163 -954 192 -1928 929 -2548 454 -381 977 -594 1575 -642 139
-11 416 -6 473 8 l22 5 0 2718 0 2718 -22 6 c-41 11 -400 15 -503 6z"/>
<path d="M13900 12329 c-243 -27 -496 -122 -711 -266 -110 -73 -197 -146 -364
-303 -248 -234 -439 -333 -693 -359 -300 -31 -636 92 -922 338 -114 99 -165
123 -255 124 -120 1 -224 -64 -277 -172 -19 -37 -23 -63 -23 -131 0 -73 4 -92
27 -135 85 -160 514 -442 834 -548 216 -71 424 -99 646 -85 378 23 751 201
1068 512 123 121 216 200 294 250 339 217 688 232 1061 46 125 -62 252 -148
351 -238 89 -79 132 -97 234 -97 72 0 92 4 135 27 66 35 108 80 141 151 22 50
26 69 22 130 -6 129 -56 197 -250 342 -424 318 -884 462 -1318 414z"/>
<path d="M5260 11657 c-95 -27 -185 -115 -210 -207 -13 -45 -13 -125 0 -170 5
-20 23 -56 39 -82 53 -84 19 -67 806 -393 245 -102 264 -108 330 -108 118 -1
219 62 275 170 63 122 16 303 -97 377 -21 14 -108 54 -193 89 -85 36 -297 124
-472 196 -340 141 -387 154 -478 128z"/>
<path d="M13960 10374 c-265 -23 -535 -116 -755 -261 -122 -81 -190 -136 -347
-287 -193 -183 -319 -270 -487 -333 -252 -95 -539 -75 -817 57 -102 49 -269
160 -359 240 -93 82 -134 102 -221 108 -103 7 -163 -16 -236 -88 -62 -62 -88
-124 -88 -210 0 -125 60 -209 254 -354 673 -505 1413 -559 2027 -148 120 81
214 159 383 321 221 210 417 311 661 341 311 39 665 -95 965 -364 30 -27 79
-60 109 -74 46 -21 64 -24 135 -20 67 3 92 9 128 31 131 76 186 219 143 365
-53 177 -552 505 -930 612 -177 49 -417 77 -565 64z"/>
<path d="M3938 9890 c-80 -24 -169 -114 -193 -193 -43 -146 13 -288 143 -365
l47 -27 1055 0 1055 0 47 27 c185 109 211 356 53 496 -87 76 -17 72 -1159 71
-562 0 -1033 -4 -1048 -9z"/>
<path d="M6175 8503 c-25 -4 -795 -318 -950 -387 -68 -31 -115 -74 -151 -138
-26 -48 -29 -62 -29 -143 0 -74 4 -97 23 -132 35 -66 79 -110 140 -140 47 -23
70 -28 132 -27 74 0 79 2 540 193 256 106 484 203 507 217 93 54 148 163 140
276 -12 177 -177 308 -352 281z"/>
<path d="M13815 8394 c-275 -51 -508 -157 -747 -341 -31 -24 -119 -103 -195
-175 -175 -167 -270 -238 -408 -304 -235 -113 -467 -132 -723 -58 -178 52
-384 169 -555 317 -68 60 -99 80 -144 93 -144 42 -293 -20 -361 -150 -23 -44
-27 -63 -27 -136 0 -69 4 -94 23 -132 58 -117 332 -324 607 -458 568 -276
1146 -246 1645 86 114 76 199 147 360 300 247 234 445 337 703 364 142 15 333
-13 476 -70 150 -59 334 -172 456 -281 38 -34 94 -73 124 -87 153 -70 342 8
402 166 28 77 23 176 -14 247 -60 117 -319 312 -592 446 -164 80 -268 117
-431 155 -105 24 -143 28 -319 30 -146 2 -222 -1 -280 -12z"/>
<path d="M6923 7306 c-23 -7 -64 -30 -90 -49 -26 -20 -357 -345 -734 -724
-544 -545 -691 -698 -710 -738 -20 -41 -24 -66 -24 -135 0 -75 3 -91 29 -138
77 -138 233 -196 381 -142 58 21 88 50 776 739 570 570 721 726 740 766 34 71
34 200 0 265 -54 104 -142 161 -256 166 -42 2 -87 -2 -112 -10z"/>
<path d="M8105 6513 c-62 -22 -115 -62 -148 -111 -14 -20 -76 -158 -137 -307
-62 -148 -151 -362 -198 -475 -81 -195 -86 -209 -86 -280 0 -63 5 -84 29 -133
75 -151 253 -211 403 -136 113 56 98 29 393 739 137 332 143 348 143 415 0
119 -61 217 -169 272 -66 34 -161 41 -230 16z"/>
<path d="M9495 6232 c-35 -11 -67 -33 -106 -72 -96 -96 -90 -5 -87 -1191 l3
-1034 27 -47 c59 -100 158 -158 268 -158 110 0 209 58 268 158 l27 47 3 1034
c3 1186 9 1096 -87 1191 -86 86 -198 111 -316 72z"/>
</g>
</svg>
